<svg version="1.1" xmlns="http://www.w3.org/2000/svg" xmlns:xlink="http://www.w3.org/1999/xlink" width="1516" height="724"><defs><linearGradient id="lIkTIziQaTKF" x1="0px" x2="32px" y1="0px" y2="0px" gradientUnits="userSpaceOnUse"><stop offset="0" stop-color="#01fd01"/><stop offset="1" stop-color="#807f7f"/></linearGradient><linearGradient id="NVedRpAKekQr" x1="0px" x2="32px" y1="0px" y2="0px" gradientUnits="userSpaceOnUse"><stop offset="0" stop-color="#807f7f"/><stop offset="1" stop-color="#807f7f"/></linearGradient><linearGradient id="yLQBNhLNRgqa" x1="0px" x2="32px" y1="0px" y2="0px" gradientUnits="userSpaceOnUse"><stop offset="0" stop-color="#807f7f"/><stop offset="1" stop-color="#ff0000"/></linearGradient><linearGradient id="JtKaMHtNZGSw" x1="0px" x2="32px" y1="0px" y2="0px" gradientUnits="userSpaceOnUse"><stop offset="0" stop-color="#ff0000"/><stop offset="1" stop-color="#807f7f"/></linearGradient><linearGradient id="PQHdgINdHVew" x1="0px" x2="32px" y1="0px" y2="0px" gradientUnits="userSpaceOnUse"><stop offset="0" stop-color="#ff0000"/><stop offset="1" stop-color="#ff0000"/></linearGradient><linearGradient id="aBNnpIlEqJAS" x1="0px" x2="32px" y1="0px" y2="0px" gradientUnits="userSpaceOnUse"><stop offset="0" stop-color="#42bd42"/><stop offset="1" stop-color="#42bd42"/></linearGradient><linearGradient id="TuWswgnRNTpJ" x1="0px" x2="32px" y1="0px" y2="0px" gradientUnits="userSpaceOnUse"><stop offset="0" stop-color="#42bd42"/><stop offset="1" stop-color="#817e7e"/></linearGradient><linearGradient id="HVbbXgKRVmGz" x1="0px" x2="32px" y1="0px" y2="0px" gradientUnits="userSpaceOnUse"><stop offset="0" stop-color="#22dc22"/><stop offset="1" stop-color="#42bd42"/></linearGradient><linearGradient id="EZGLTNBeyOPL" x1="0px" x2="32px" y1="0px" y2="0px" gradientUnits="userSpaceOnUse"><stop offset="0" stop-color="#22dc22"/><stop offset="1" stop-color="#817e7e"/></linearGradient><linearGradient id="yZTCPhwqLvCG" x1="0px" x2="32px" y1="0px" y2="0px" gradientUnits="userSpaceOnUse"><stop offset="0" stop-color="#01fd01"/><stop offset="1" stop-color="#22dc22"/></linearGradient></defs><g><rect fill="#000000" stroke="none" x="0" y="0" width="1516" height="724"/><g transform="scale(1,1) translate(294,-318)"><path fill="none" stroke="#807f7f" paint-order="fill stroke markers" d=" M 512 560 L 512 468" stroke-linecap="round" stroke-miterlimit="10" stroke-width="3" stroke-dasharray=""/><path fill="none" stroke="#01fd01" paint-order="fill stroke markers" d=" M 512 460 L 512 368" stroke-linecap="round" stroke-miterlimit="10" stroke-width="3" stroke-dasharray=""/><path fill="none" stroke="#807f7f" paint-order="fill stroke markers" d=" M 502 468 L 522 468" stroke-linecap="round" stroke-miterlimit="10" stroke-width="3" stroke-dasharray=""/><path fill="none" stroke="#01fd01" paint-order="fill stroke markers" d=" M 496 460 L 528 460" stroke-linecap="round" stroke-miterlimit="10" stroke-width="3" stroke-dasharray=""/><path fill="none" stroke="#01fd01" paint-order="fill stroke markers" d=" M 512 368 L 608 368" stroke-linecap="round" stroke-miterlimit="10" stroke-width="3" stroke-dasharray=""/><path fill="none" stroke="#807f7f" paint-order="fill stroke markers" d=" M 640 368 L 736 368" stroke-linecap="round" stroke-miterlimit="10" stroke-width="3" stroke-dasharray=""/><g transform="matrix(1,0,0,1,608,368)"><rect fill="none" stroke="url(#lIkTIziQaTKF)" x="0" y="-6" width="32" height="12" stroke-linecap="round" stroke-miterlimit="10" stroke-width="3" stroke-dasharray=""/></g><text fill="#ffffff" stroke="none" font-family="sans-serif" font-size="12px" font-style="normal" font-weight="normal" text-decoration="normal" x="621" y="358" text-anchor="start" dominant-baseline="alphabetic">2</text><path fill="none" stroke="#807f7f" paint-order="fill stroke markers" d=" M 736 368 L 736 448" stroke-linecap="round" stroke-miterlimit="10" stroke-width="3" stroke-dasharray=""/><path fill="none" stroke="#807f7f" paint-order="fill stroke markers" d=" M 736 480 L 736 560" stroke-linecap="round" stroke-miterlimit="10" stroke-width="3" stroke-dasharray=""/><g transform="matrix(0,1,-1,0,736,448)"><rect fill="none" stroke="url(#NVedRpAKekQr)" x="0" y="-6" width="32" height="12" stroke-linecap="round" stroke-miterlimit="10" stroke-width="3" stroke-dasharray=""/></g><text fill="#ffffff" stroke="none" font-family="sans-serif" font-size="12px" font-style="normal" font-weight="normal" text-decoration="normal" x="746" y="470" text-anchor="start" dominant-baseline="alphabetic">2</text><path fill="none" stroke="#807f7f" paint-order="fill stroke markers" d=" M 736 368 L 824 368" stroke-linecap="round" stroke-miterlimit="10" stroke-width="3" stroke-dasharray=""/><path fill="none" stroke="#ff0000" paint-order="fill stroke markers" d=" M 856 368 L 944 368" stroke-linecap="round" stroke-miterlimit="10" stroke-width="3" stroke-dasharray=""/><g transform="matrix(1,0,0,1,824,368)"><rect fill="none" stroke="url(#yLQBNhLNRgqa)" x="0" y="-6" width="32" height="12" stroke-linecap="round" stroke-miterlimit="10" stroke-width="3" stroke-dasharray=""/></g><text fill="#ffffff" stroke="none" font-family="sans-serif" font-size="12px" font-style="normal" font-weight="normal" text-decoration="normal" x="837" y="358" text-anchor="start" dominant-baseline="alphabetic">1</text><path fill="none" stroke="#ff0000" paint-order="fill stroke markers" d=" M 944 368 L 944 448" stroke-linecap="round" stroke-miterlimit="10" stroke-width="3" stroke-dasharray=""/><path fill="none" stroke="#807f7f" paint-order="fill stroke markers" d=" M 944 480 L 944 560" stroke-linecap="round" stroke-miterlimit="10" stroke-width="3" stroke-dasharray=""/><g transform="matrix(0,1,-1,0,944,448)"><rect fill="none" stroke="url(#JtKaMHtNZGSw)" x="0" y="-6" width="32" height="12" stroke-linecap="round" stroke-miterlimit="10" stroke-width="3" stroke-dasharray=""/></g><text fill="#ffffff" stroke="none" font-family="sans-serif" font-size="12px" font-style="normal" font-weight="normal" text-decoration="normal" x="954" y="470" text-anchor="start" dominant-baseline="alphabetic">2</text><path fill="none" stroke="#ff0000" paint-order="fill stroke markers" d=" M 944 368 L 1032 368" stroke-linecap="round" stroke-miterlimit="10" stroke-width="3" stroke-dasharray=""/><path fill="none" stroke="#ff0000" paint-order="fill stroke markers" d=" M 1064 368 L 1152 368" stroke-linecap="round" stroke-miterlimit="10" stroke-width="3" stroke-dasharray=""/><g transform="matrix(1,0,0,1,1032,368)"><rect fill="none" stroke="url(#PQHdgINdHVew)" x="0" y="-6" width="32" height="12" stroke-linecap="round" stroke-miterlimit="10" stroke-width="3" stroke-dasharray=""/></g><text fill="#ffffff" stroke="none" font-family="sans-serif" font-size="12px" font-style="normal" font-weight="normal" text-decoration="normal" x="1045" y="358" text-anchor="start" dominant-baseline="alphabetic">2</text><path fill="none" stroke="#ff0000" paint-order="fill stroke markers" d=" M 1152 368 L 1152 460" stroke-linecap="round" stroke-miterlimit="10" stroke-width="3" stroke-dasharray=""/><path fill="none" stroke="#807f7f" paint-order="fill stroke markers" d=" M 1152 468 L 1152 560" stroke-linecap="round" stroke-miterlimit="10" stroke-width="3" stroke-dasharray=""/><path fill="none" stroke="#ff0000" paint-order="fill stroke markers" d=" M 1162 460 L 1142 460" stroke-linecap="round" stroke-miterlimit="10" stroke-width="3" stroke-dasharray=""/><path fill="none" stroke="#807f7f" paint-order="fill stroke markers" d=" M 1168 468 L 1136 468" stroke-linecap="round" stroke-miterlimit="10" stroke-width="3" stroke-dasharray=""/><path fill="none" stroke="#807f7f" paint-order="fill stroke markers" d=" M 1152 560 L 944 560" stroke-linecap="round" stroke-miterlimit="10" stroke-width="3" stroke-dasharray=""/><text fill="#ffffff" stroke="none" font-family="sans-serif" font-size="12px" font-style="normal" font-weight="normal" text-decoration="normal" x="1048" y="554" text-anchor="start" dominant-baseline="alphabetic"></text><path fill="none" stroke="#807f7f" paint-order="fill stroke markers" d=" M 944 560 L 736 560" stroke-linecap="round" stroke-miterlimit="10" stroke-width="3" stroke-dasharray=""/><text fill="#ffffff" stroke="none" font-family="sans-serif" font-size="12px" font-style="normal" font-weight="normal" text-decoration="normal" x="840" y="554" text-anchor="start" dominant-baseline="alphabetic"></text><path fill="none" stroke="#807f7f" paint-order="fill stroke markers" d=" M 736 560 L 512 560" stroke-linecap="round" stroke-miterlimit="10" stroke-width="3" stroke-dasharray=""/><text fill="#ffffff" stroke="none" font-family="sans-serif" font-size="12px" font-style="normal" font-weight="normal" text-decoration="normal" x="624" y="554" text-anchor="start" dominant-baseline="alphabetic"></text><path fill="none" stroke="#817e7e" paint-order="fill stroke markers" d=" M 0 992 L -224 992" stroke-linecap="round" stroke-miterlimit="10" stroke-width="3" stroke-dasharray=""/><text fill="#ffffff" stroke="none" font-family="sans-serif" font-size="12px" font-style="normal" font-weight="normal" text-decoration="normal" x="-112" y="986" text-anchor="start" dominant-baseline="alphabetic"></text><path fill="none" stroke="#817e7e" paint-order="fill stroke markers" d=" M 208 992 L 0 992" stroke-linecap="round" stroke-miterlimit="10" stroke-width="3" stroke-dasharray=""/><text fill="#ffffff" stroke="none" font-family="sans-serif" font-size="12px" font-style="normal" font-weight="normal" text-decoration="normal" x="104" y="986" text-anchor="start" dominant-baseline="alphabetic"></text><path fill="none" stroke="#817e7e" paint-order="fill stroke markers" d=" M 416 992 L 208 992" stroke-linecap="round" stroke-miterlimit="10" stroke-width="3" stroke-dasharray=""/><text fill="#ffffff" stroke="none" font-family="sans-serif" font-size="12px" font-style="normal" font-weight="normal" text-decoration="normal" x="312" y="986" text-anchor="start" dominant-baseline="alphabetic"></text><path fill="none" stroke="#42bd42" paint-order="fill stroke markers" d=" M 208 800 L 296 800" stroke-linecap="round" stroke-miterlimit="10" stroke-width="3" stroke-dasharray=""/><path fill="none" stroke="#42bd42" paint-order="fill stroke markers" d=" M 328 800 L 416 800" stroke-linecap="round" stroke-miterlimit="10" stroke-width="3" stroke-dasharray=""/><g transform="matrix(1,0,0,1,296,800)"><rect fill="none" stroke="url(#aBNnpIlEqJAS)" x="0" y="-6" width="32" height="12" stroke-linecap="round" stroke-miterlimit="10" stroke-width="3" stroke-dasharray=""/></g><text fill="#ffffff" stroke="none" font-family="sans-serif" font-size="12px" font-style="normal" font-weight="normal" text-decoration="normal" x="309" y="790" text-anchor="start" dominant-baseline="alphabetic">2</text><path fill="none" stroke="#42bd42" paint-order="fill stroke markers" d=" M 208 800 L 208 880" stroke-linecap="round" stroke-miterlimit="10" stroke-width="3" stroke-dasharray=""/><path fill="none" stroke="#817e7e" paint-order="fill stroke markers" d=" M 208 912 L 208 992" stroke-linecap="round" stroke-miterlimit="10" stroke-width="3" stroke-dasharray=""/><g transform="matrix(0,1,-1,0,208,880)"><rect fill="none" stroke="url(#TuWswgnRNTpJ)" x="0" y="-6" width="32" height="12" stroke-linecap="round" stroke-miterlimit="10" stroke-width="3" stroke-dasharray=""/></g><text fill="#ffffff" stroke="none" font-family="sans-serif" font-size="12px" font-style="normal" font-weight="normal" text-decoration="normal" x="218" y="902" text-anchor="start" dominant-baseline="alphabetic">2</text><path fill="none" stroke="#22dc22" paint-order="fill stroke markers" d=" M 0 800 L 88 800" stroke-linecap="round" stroke-miterlimit="10" stroke-width="3" stroke-dasharray=""/><path fill="none" stroke="#42bd42" paint-order="fill stroke markers" d=" M 120 800 L 208 800" stroke-linecap="round" stroke-miterlimit="10" stroke-width="3" stroke-dasharray=""/><g transform="matrix(1,0,0,1,88,800)"><rect fill="none" stroke="url(#HVbbXgKRVmGz)" x="0" y="-6" width="32" height="12" stroke-linecap="round" stroke-miterlimit="10" stroke-width="3" stroke-dasharray=""/></g><text fill="#ffffff" stroke="none" font-family="sans-serif" font-size="12px" font-style="normal" font-weight="normal" text-decoration="normal" x="101" y="790" text-anchor="start" dominant-baseline="alphabetic">1</text><path fill="none" stroke="#22dc22" paint-order="fill stroke markers" d=" M 0 800 L 0 880" stroke-linecap="round" stroke-miterlimit="10" stroke-width="3" stroke-dasharray=""/><path fill="none" stroke="#817e7e" paint-order="fill stroke markers" d=" M 0 912 L 0 992" stroke-linecap="round" stroke-miterlimit="10" stroke-width="3" stroke-dasharray=""/><g transform="matrix(0,1,-1,0,0,880)"><rect fill="none" stroke="url(#EZGLTNBeyOPL)" x="0" y="-6" width="32" height="12" stroke-linecap="round" stroke-miterlimit="10" stroke-width="3" stroke-dasharray=""/></g><text fill="#ffffff" stroke="none" font-family="sans-serif" font-size="12px" font-style="normal" font-weight="normal" text-decoration="normal" x="10" y="902" text-anchor="start" dominant-baseline="alphabetic">2</text><path fill="none" stroke="#01fd01" paint-order="fill stroke markers" d=" M -224 800 L -128 800" stroke-linecap="round" stroke-miterlimit="10" stroke-width="3" stroke-dasharray=""/><path fill="none" stroke="#22dc22" paint-order="fill stroke markers" d=" M -96 800 L 0 800" stroke-linecap="round" stroke-miterlimit="10" stroke-width="3" stroke-dasharray=""/><g transform="matrix(1,0,0,1,-128,800)"><rect fill="none" stroke="url(#yZTCPhwqLvCG)" x="0" y="-6" width="32" height="12" stroke-linecap="round" stroke-miterlimit="10" stroke-width="3" stroke-dasharray=""/></g><text fill="#ffffff" stroke="none" font-family="sans-serif" font-size="12px" font-style="normal" font-weight="normal" text-decoration="normal" x="-115" y="790" text-anchor="start" dominant-baseline="alphabetic">2</text><path fill="none" stroke="#817e7e" paint-order="fill stroke markers" d=" M -224 992 L -224 900" stroke-linecap="round" stroke-miterlimit="10" stroke-width="3" stroke-dasharray=""/><path fill="none" stroke="#01fd01" paint-order="fill stroke markers" d=" M -224 892 L -224 800" stroke-linecap="round" stroke-miterlimit="10" stroke-width="3" stroke-dasharray=""/><path fill="none" stroke="#817e7e" paint-order="fill stroke markers" d=" M -234 900 L -214 900" stroke-linecap="round" stroke-miterlimit="10" stroke-width="3" stroke-dasharray=""/><path fill="none" stroke="#01fd01" paint-order="fill stroke markers" d=" M -240 892 L -208 892" stroke-linecap="round" stroke-miterlimit="10" stroke-width="3" stroke-dasharray=""/><path fill="#ffffff" stroke="none" paint-order="stroke fill markers" d=" M 739 368 A 3 3 0 1 1 738.9997392252899 367.9604452245994 Z"/><path fill="#ffffff" stroke="none" paint-order="stroke fill markers" d=" M 739 560 A 3 3 0 1 1 738.9997392252899 559.9604452245994 Z"/><path fill="#ffffff" stroke="none" paint-order="stroke fill markers" d=" M 947 368 A 3 3 0 1 1 946.9997392252899 367.9604452245994 Z"/><path fill="#ffffff" stroke="none" paint-order="stroke fill markers" d=" M 947 560 A 3 3 0 1 1 946.9997392252899 559.9604452245994 Z"/><path fill="#ffffff" stroke="none" paint-order="stroke fill markers" d=" M 3 992 A 3 3 0 1 1 2.999739225289927 991.9604452245994 Z"/><path fill="#ffffff" stroke="none" paint-order="stroke fill markers" d=" M 211 992 A 3 3 0 1 1 210.99973922528991 991.9604452245994 Z"/><path fill="#ffffff" stroke="none" paint-order="stroke fill markers" d=" M 419 992 A 3 3 0 1 1 418.99973922528994 991.9604452245994 Z"/><path fill="#ffffff" stroke="none" paint-order="stroke fill markers" d=" M 211 800 A 3 3 0 1 1 210.99973922528991 799.9604452245994 Z"/><path fill="#ffffff" stroke="none" paint-order="stroke fill markers" d=" M 419 800 A 3 3 0 1 1 418.99973922528994 799.9604452245994 Z"/><path fill="#ffffff" stroke="none" paint-order="stroke fill markers" d=" M 3 800 A 3 3 0 1 1 2.999739225289927 799.9604452245994 Z"/></g></g></svg>